<?xml version="1.0" standalone="no"?>
<!DOCTYPE svg PUBLIC "-//W3C//DTD SVG 20010904//EN"
 "http://www.w3.org/TR/2001/REC-SVG-20010904/DTD/svg10.dtd">
<svg version="1.0" xmlns="http://www.w3.org/2000/svg"
 width="450.000000pt" height="450.000000pt" viewBox="0 0 450.000000 450.000000"
 preserveAspectRatio="xMidYMid meet">
<metadata>
Created by potrace 1.11, written by Peter Selinger 2001-2013
</metadata>
<g transform="translate(0.000000,450.000000) scale(0.100000,-0.100000)"
fill="#000000" stroke="none">
<path d="M1028 3835 c-2 -1 -30 -5 -63 -9 -298 -30 -493 -185 -578 -461 -27
-89 -56 -189 -62 -215 -3 -14 -16 -72 -30 -130 -42 -178 -38 -298 14 -397 45
-87 -1 -121 497 374 248 246 492 486 543 533 50 47 120 111 154 143 72 67 120
77 107 22 -1 -5 -22 -84 -47 -175 -95 -353 -113 -422 -113 -433 0 -9 97 -12
390 -11 215 1 393 4 396 7 18 18 47 164 50 257 5 159 -24 252 -109 342 -63 69
-149 116 -264 144 -25 7 -878 15 -885 9z"/>
<path d="M3811 3750 c-8 -4 -35 -86 -46 -136 -2 -11 -15 -57 -28 -104 -31
-104 -121 -424 -152 -540 -13 -47 -37 -134 -55 -195 -36 -128 -34 -122 -55
-200 -9 -33 -25 -89 -36 -125 -19 -61 -23 -74 -33 -117 -2 -10 -25 -92 -51
-183 -26 -91 -48 -172 -50 -180 -14 -67 -54 -123 -111 -156 -40 -23 -57 -27
-149 -29 -58 -2 -105 -1 -105 2 0 3 7 33 16 67 9 33 18 68 19 76 2 8 9 31 15
50 6 19 13 44 15 55 3 11 18 70 36 130 30 108 94 342 148 543 15 56 24 102 19
102 -4 0 -8 -3 -8 -7 0 -5 -15 -24 -33 -44 -17 -20 -48 -55 -67 -79 -19 -24
-66 -80 -104 -124 -93 -109 -103 -122 -161 -191 -27 -33 -60 -71 -71 -85 -12
-14 -41 -47 -64 -75 -23 -27 -52 -61 -63 -75 -12 -14 -91 -108 -176 -210 -85
-102 -157 -187 -160 -190 -3 -3 -28 -32 -56 -65 -27 -33 -52 -62 -55 -65 -12
-11 -197 -236 -203 -246 -9 -16 1503 -11 1586 4 181 34 304 87 401 173 55 50
135 152 156 200 5 13 14 31 19 39 16 25 60 144 66 180 3 18 8 37 11 41 13 22
19 137 10 210 -16 139 -112 263 -257 333 -42 20 -81 36 -88 36 -6 0 -11 4 -11
9 0 5 32 17 72 26 267 61 432 201 508 433 50 151 53 365 8 464 -67 147 -224
228 -468 244 -146 9 -181 10 -189 4z"/>
<path d="M2635 3740 c-3 -5 -145 -515 -150 -540 -2 -8 -4 -15 -5 -15 -1 0 -3
-7 -5 -15 -2 -8 -10 -40 -19 -70 -8 -30 -28 -104 -45 -165 -16 -60 -59 -218
-96 -350 -36 -132 -72 -262 -80 -290 -8 -27 -23 -84 -35 -125 -12 -41 -23 -82
-25 -90 -2 -8 -28 -107 -59 -219 -31 -112 -55 -205 -54 -207 2 -2 19 16 38 40
19 23 56 67 81 97 26 30 100 117 164 194 64 77 134 160 155 185 21 25 104 124
185 220 80 96 154 184 163 195 10 11 87 103 172 205 85 102 157 187 160 190 3
3 25 30 50 60 25 30 50 60 56 67 10 10 59 169 69 225 3 13 9 34 15 48 5 14 18
59 29 100 11 41 25 91 31 110 6 19 13 42 15 51 2 9 8 34 14 55 6 21 8 40 6 43
-7 6 -826 7 -830 1z"/>
<path d="M796 2811 l-338 -340 40 -20 c37 -19 187 -63 257 -75 49 -9 76 -15
93 -20 17 -5 49 -12 112 -22 112 -19 192 -77 208 -151 10 -42 -3 -144 -28
-219 -6 -17 -12 -41 -15 -52 -9 -48 -66 -150 -108 -192 -24 -25 -81 -79 -127
-120 -46 -41 -96 -87 -112 -102 -49 -47 -98 -64 -98 -33 0 9 16 71 35 139 20
68 37 132 40 142 2 10 20 75 40 144 20 69 38 132 40 141 2 9 13 49 25 89 12
39 19 75 15 78 -11 11 -767 8 -780 -3 -16 -13 -73 -204 -82 -275 -32 -255 49
-428 242 -520 112 -53 158 -57 630 -55 237 2 446 6 465 10 185 35 299 86 385
171 103 102 141 177 205 394 12 41 36 118 53 170 39 119 33 98 60 215 30 126
27 198 -12 280 -39 83 -99 138 -206 190 -94 46 -273 109 -302 106 -2 0 -17 5
-35 10 -18 5 -44 12 -58 14 -98 18 -245 56 -266 70 -34 22 -47 60 -41 123 3
28 4 52 3 52 -1 0 -154 -153 -340 -339z"/>
<path d="M1071 1134 c-66 -33 -102 -80 -117 -154 -36 -174 59 -310 219 -312
69 -1 112 9 170 40 l47 25 0 99 0 98 -104 0 -105 0 1 -40 0 -40 54 0 c53 0 54
-1 54 -29 0 -37 -39 -63 -100 -68 -89 -7 -145 58 -142 169 1 65 20 108 58 133
54 35 158 14 171 -36 4 -15 12 -17 47 -13 56 8 63 17 43 59 -27 57 -84 87
-171 91 -63 3 -81 0 -125 -22z"/>
<path d="M2632 1147 c-41 -13 -93 -61 -118 -107 -25 -47 -29 -185 -8 -237 27
-66 88 -117 153 -130 101 -19 184 6 239 72 38 47 54 101 51 180 -5 141 -86
227 -217 231 -37 1 -82 -3 -100 -9z m150 -88 c40 -16 70 -84 67 -153 -3 -77
-36 -131 -89 -147 -97 -29 -174 42 -169 158 4 128 82 185 191 142z"/>
<path d="M3150 1146 c-51 -15 -114 -82 -129 -138 -52 -184 41 -339 202 -339
88 0 154 38 183 107 18 43 18 43 -8 53 -60 22 -68 23 -75 4 -25 -71 -86 -99
-149 -70 -49 24 -67 73 -62 169 5 86 19 111 74 134 45 19 101 2 122 -37 15
-27 21 -30 52 -24 19 4 41 7 48 7 16 2 15 13 -4 51 -19 36 -28 45 -68 71 -35
22 -133 29 -186 12z"/>
<path d="M5 918 c1 -128 3 -236 3 -239 1 -3 21 -5 44 -5 l43 1 0 142 c0 78 3
144 6 148 4 3 14 -9 23 -27 8 -18 49 -85 89 -148 l72 -115 43 -1 c24 0 45 3
48 7 4 6 7 365 5 452 -1 13 -10 17 -46 17 l-45 0 3 -150 c1 -83 -1 -149 -5
-148 -4 2 -47 68 -96 148 l-90 145 -49 3 -49 3 1 -233z"/>
<path d="M609 1123 c-6 -15 -15 -37 -20 -48 -5 -11 -38 -96 -75 -190 -36 -93
-70 -179 -74 -191 -8 -19 -5 -20 45 -20 l53 1 18 50 c9 28 21 52 25 55 4 3 46
5 94 4 l87 0 22 -54 22 -55 52 -1 c29 0 52 1 52 3 0 3 -39 102 -138 348 l-48
120 -52 3 c-49 3 -53 1 -63 -25z m96 -183 c10 -30 20 -60 22 -65 2 -7 -19 -11
-57 -11 -37 0 -59 5 -58 11 2 5 14 42 27 82 28 82 34 80 66 -17z"/>
<path d="M1600 1118 c-7 -18 -16 -42 -21 -53 -5 -11 -29 -74 -54 -140 -25 -66
-49 -129 -54 -140 -11 -24 -41 -104 -41 -109 0 -1 21 -3 48 -2 47 1 47 1 72
55 l26 55 92 0 91 1 20 -55 20 -55 54 0 c61 -1 59 -10 22 80 -7 17 -45 112
-85 213 l-73 182 -52 0 c-50 0 -53 -2 -65 -32z m103 -189 l25 -65 -63 0 -62 1
9 30 c5 17 13 39 18 50 4 11 14 35 21 54 11 29 14 31 20 15 4 -11 18 -49 32
-85z"/>
<path d="M1955 915 c0 -129 2 -236 5 -236 24 -7 80 -3 83 5 2 6 3 84 3 173 -1
89 1 159 5 155 3 -4 23 -79 44 -167 21 -88 40 -162 42 -164 2 -3 23 -5 48 -6
42 -2 45 0 54 29 6 17 12 42 15 56 10 56 61 250 66 250 3 0 5 -75 5 -167 l0
-168 45 0 45 0 0 238 0 238 -74 -3 -75 -3 -8 -35 c-35 -138 -71 -270 -75 -267
-2 3 -5 13 -8 23 -5 27 -33 134 -45 169 -5 17 -14 49 -20 73 l-11 42 -72 0
-72 0 0 -235z"/>
<path d="M3504 913 l1 -238 48 0 47 0 1 50 c0 27 0 74 -1 103 -2 56 -4 54 60
54 17 0 53 -1 81 -1 l50 -1 -1 -82 c-2 -134 -6 -124 45 -124 24 -1 46 4 48 10
2 6 3 112 3 236 l-1 225 -47 3 -48 3 -1 -58 c0 -32 -1 -74 -2 -93 l-2 -34 -90
-1 -90 0 -1 50 c-1 28 -2 69 -3 93 l-1 42 -48 0 -49 0 1 -237z"/>
<path d="M3980 1113 c-3 -196 0 -427 5 -432 8 -8 85 -10 86 -2 1 3 2 111 3
239 l2 232 -48 0 -48 0 0 -37z"/>
</g>
</svg>
